#!OML:ASF F:\VICON\USERDATA\INSTALL\rory3\rory3.ASF
:FULLY-SPECIFIED
:DEGREES
1604
root -0.42866 15.6005 -4.93296 -22.8301 6.15207 -713.847
lowerback 21.6894 -0.325799 -0.97044
upperback 9.41972 -0.396339 4.39967
thorax -1.80071 -0.2972 5.37089
lowerneck -18.0736 -0.890143 -8.24814
upperneck 28.3465 0.83167 1.86619
head 12.3655 -0.259532 2.25119
rclavicle 1.23246e-014 -3.02153e-014
rhumerus -31.8526 16.5165 -83.2185
rradius 101.478
rwrist 25.2383
rhand -32.4207 17.3515
rfingers 7.12502
rthumb -5.65496 -12.5531
lclavicle 1.23246e-014 -3.02153e-014
lhumerus -35.2757 -21.0516 96.7894
lradius 88.8225
lwrist -22.811
lhand -38.9723 13.6664
lfingers 7.12502
lthumb -11.9769 43.3037
rfemur -80.68 -21.1475 33.4819
rtibia 138.874
rfoot -1.7279 -17.7038
rtoes 22.8261
lfemur -83.7254 15.6645 -33.7185
ltibia 126.071
lfoot 12.873 -13.9299
ltoes -15.1724
1605
root -0.427211 15.6012 -4.93764 -22.8994 6.21757 -713.788
lowerback 21.6247 -0.315613 -1.23645
upperback 9.44586 -0.437644 4.38294
thorax -1.73192 -0.326627 5.51409
lowerneck -18.0531 -0.841258 -8.37451
upperneck 28.1965 0.943328 1.84976
head 12.2952 -0.221468 2.28056
rclavicle 3.4191e-014 6.36111e-015
rhumerus -31.8699 16.5932 -83.3107
rradius 101.371
rwrist 25.4199
rhand -32.5351 17.3547
rfingers 7.12502
rthumb -5.76533 -12.5469
lclavicle 3.4191e-014 6.36111e-015
lhumerus -35.071 -20.9062 96.884
lradius 88.6246
lwrist -22.8224
lhand -38.8854 13.7864
lfingers 7.12502
lthumb -11.8931 43.4287
rfemur -80.6553 -21.5378 33.3779
rtibia 138.842
rfoot -1.16007 -17.6886
rtoes 24.1537
lfemur -83.3885 15.4793 -33.8943
ltibia 126.274
lfoot 12.938 -14.1022
ltoes -15.0841
1606
root -0.42622 15.6019 -4.93942 -22.9569 6.22552 -713.689
lowerback 21.5211 -0.240305 -1.49075
upperback 9.46666 -0.392983 4.32682
thorax -1.65943 -0.311919 5.58722
lowerneck -18.0224 -0.807211 -8.37714
upperneck 28.0903 1.00265 1.80405
head 12.2436 -0.198188 2.27049
rclavicle -9.14409e-015 0
rhumerus -31.9778 16.5368 -83.4068
rradius 101.347
rwrist 25.6147
rhand -32.6407 17.1878
rfingers 7.12502
rthumb -5.86735 -12.7109
lclavicle -9.14409e-015 0
lhumerus -34.8659 -20.9391 96.9995
lradius 88.4142
lwrist -22.8492
lhand -38.6923 14.0401
lfingers 7.12502
lthumb -11.7069 43.6929
rfemur -80.651 -21.8737 33.2583
rtibia 138.835
rfoot -1.27431 -17.4968
rtoes 23.3061
lfemur -83.0865 15.3761 -34.0666
ltibia 126.495
lfoot 13.1547 -13.9452
ltoes -14.4501
1607
root -0.423987 15.6027 -4.94129 -22.9986 6.19008 -713.557
lowerback 21.4173 -0.107903 -1.67328
upperback 9.5063 -0.26196 4.20362
thorax -1.57824 -0.250799 5.52625
lowerneck -18.172 -0.816472 -8.22376
upperneck 28.11 0.973158 1.7503
head 12.2843 -0.202836 2.22102
rclavicle 4.37326e-015 -1.11319e-014
rhumerus -32.015 16.2598 -83.5215
rradius 101.318
rwrist 25.7613
rhand -32.6788 17.1364
rfingers 7.12502
rthumb -5.90413 -12.7613
lclavicle 4.37326e-015 -1.11319e-014
lhumerus -34.6668 -21.2267 97.0203
lradius 88.244
lwrist -22.8479
lhand -38.6177 14.016
lfingers 7.12502
lthumb -11.635 43.6729
rfemur -80.6649 -22.1196 33.1321
rtibia 138.839
rfoot -1.33759 -17.3349
rtoes 22.1767
lfemur -82.7747 15.2848 -34.1932
ltibia 126.736
lfoot 13.6675 -13.7729
ltoes -13.429
1608
root -0.421805 15.6049 -4.94326 -23.0018 6.17491 -713.398
lowerback 21.3066 -0.00449681 -1.89056
upperback 9.53109 -0.174189 4.08746
thorax -1.5045 -0.212316 5.50325
lowerneck -18.41 -0.841949 -8.20093
upperneck 28.1949 0.961156 1.73315
head 12.3681 -0.211113 2.21194
rclavicle 1.90833e-014 6.20208e-014
rhumerus -32.0363 16.0601 -83.5921
rradius 101.263
rwrist 25.8119
rhand -32.6938 17.4158
rfingers 7.12502
rthumb -5.91863 -12.4815
lclavicle 1.90833e-014 6.20208e-014
lhumerus -34.5048 -21.4149 97.0334
lradius 88.1376
lwrist -22.844
lhand -38.5347 14.1025
lfingers 7.12502
lthumb -11.555 43.764
rfemur -80.7011 -22.3499 32.9665
rtibia 138.859
rfoot -0.471131 -17.3187
rtoes 24.2417
lfemur -82.4046 15.1465 -34.2864
ltibia 126.967
lfoot 14.1946 -13.5886
ltoes -12.2978
1609
root -0.418699 15.6065 -4.94761 -23.0255 6.12759 -713.298
lowerback 21.298 0.0338946 -2.07998
upperback 9.50368 -0.163818 3.99912
thorax -1.52994 -0.21001 5.51435
lowerneck -18.4349 -0.823181 -8.25773
upperneck 28.0986 1.03144 1.65655
head 12.3321 -0.19374 2.20157
rclavicle 1.72943e-014 2.8625e-014
rhumerus -32.1035 16.0448 -83.7252
rradius 101.184
rwrist 25.8161
rhand -32.7606 17.7141
rfingers 7.12502
rthumb -5.98305 -12.1815
lclavicle 1.72943e-014 2.8625e-014
lhumerus -34.4231 -21.3856 97.0716
lradius 88.0108
lwrist -22.9187
lhand -38.329 14.2092
lfingers 7.12502
lthumb -11.3565 43.8817
rfemur -80.7145 -22.5672 32.8438
rtibia 138.86
rfoot -0.348394 -17.1107
rtoes 23.7935
lfemur -82.0407 15.1104 -34.3206
ltibia 127.188
lfoot 14.5444 -13.4355
ltoes -12.0453
1610
root -0.415465 15.6072 -4.95217 -23.0624 6.01961 -713.214
lowerback 21.3262 0.079501 -2.29077
upperback 9.47187 -0.147543 3.93918
thorax -1.57852 -0.205556 5.56827
lowerneck -18.4542 -0.802822 -8.30947
upperneck 27.9829 1.11426 1.53689
head 12.2875 -0.175394 2.1755
rclavicle 9.54166e-015 7.95139e-015
rhumerus -32.141 16.1092 -83.865
rradius 101.11
rwrist 25.7697
rhand -32.7335 17.8518
rfingers 7.12502
rthumb -5.95695 -12.0445
lclavicle 9.54166e-015 7.95139e-015
lhumerus -34.3066 -21.2526 97.1495
lradius 87.8194
lwrist -23.1066
lhand -37.9805 14.0792
lfingers 7.12502
lthumb -11.0204 43.7699
rfemur -80.7415 -22.698 32.7853
rtibia 138.839
rfoot -0.0476028 -16.9665
rtoes 24.0421
lfemur -81.7441 15.1869 -34.3218
ltibia 127.41
lfoot 15.0232 -13.25
ltoes -11.7059
1611
root -0.411955 15.6051 -4.95414 -23.0986 5.89971 -713.226
lowerback 21.3193 0.120092 -2.39807
upperback 9.40619 -0.117354 3.87847
thorax -1.6495 -0.189897 5.55784
lowerneck -18.4098 -0.732992 -8.24509
upperneck 27.9443 1.21623 1.44683
head 12.2583 -0.133973 2.14515
rclavicle 8.54774e-015 -3.18055e-015
rhumerus -32.2926 16.118 -84.0559
rradius 101.056
rwrist 25.6942
rhand -32.5098 17.7002
rfingers 7.12502
rthumb -5.74091 -12.202
lclavicle 8.54774e-015 -3.18055e-015
lhumerus -34.2678 -21.191 97.2085
lradius 87.6372
lwrist -23.2353
lhand -37.7551 13.7991
lfingers 7.12502
lthumb -10.803 43.5013
rfemur -80.7995 -22.7523 32.8357
rtibia 138.83
rfoot 0.456588 -16.7979
rtoes 25.043
lfemur -81.537 15.2184 -34.2313
ltibia 127.669
lfoot 15.8256 -12.7332
ltoes -10.4067
1612
root -0.408728 15.6042 -4.95682 -23.1191 5.80775 -713.322
lowerback 21.3093 0.158498 -2.38667
upperback 9.30513 -0.0663185 3.81473
thorax -1.76129 -0.158649 5.47087
lowerneck -18.3336 -0.682244 -8.20163
upperneck 27.924 1.26288 1.46059
head 12.2314 -0.105817 2.14938
rclavicle 1.25234e-014 -1.90833e-014
rhumerus -32.608 15.9554 -84.2464
rradius 101.102
rwrist 25.5787
rhand -32.516 17.5847
rfingers 7.12502
rthumb -5.74694 -12.3173
lclavicle 1.25234e-014 -1.90833e-014
lhumerus -34.3897 -21.2567 97.2618
lradius 87.5546
lwrist -23.4069
lhand -37.7729 13.6781
lfingers 7.12502
lthumb -10.8202 43.3793
rfemur -80.7328 -22.8285 32.8932
rtibia 138.805
rfoot 0.412992 -16.4788
rtoes 25.0232
lfemur -81.3587 15.1638 -34.1048
ltibia 127.867
lfoot 16.7583 -12.1742
ltoes -9.60449
1613
root -0.406072 15.608 -4.96414 -23.1667 5.68015 -713.476
lowerback 21.3331 0.176212 -2.31628
upperback 9.24348 -0.0306873 3.78365
thorax -1.8455 -0.135743 5.38913
lowerneck -18.3341 -0.653003 -8.29137
upperneck 27.8739 1.30425 1.55427
head 12.2073 -0.0830189 2.20558
rclavicle -1.80894e-014 -5.88403e-014
rhumerus -32.8279 15.8396 -84.3575
rradius 101.156
rwrist 25.4808
rhand -32.8611 17.3764
rfingers 7.12502
rthumb -6.0801 -12.5164
lclavicle -1.80894e-014 -5.88403e-014
lhumerus -34.415 -21.2676 97.3121
lradius 87.4449
lwrist -23.6314
lhand -37.6231 13.6796
lfingers 7.12502
lthumb -10.6758 43.3884
rfemur -80.4738 -22.9293 32.9485
rtibia 138.726
rfoot 0.198349 -16.1237
rtoes 25.2757
lfemur -81.1072 15.1855 -33.939
ltibia 127.957
lfoot 17.6376 -11.6607
ltoes -9.08155
1614
root -0.401942 15.6147 -4.97177 -23.2302 5.57265 -713.589
lowerback 21.3383 0.173767 -2.28674
upperback 9.22769 -0.0295879 3.76269
thorax -1.86597 -0.133675 5.34918
lowerneck -18.4162 -0.608716 -8.39638
upperneck 27.8143 1.40382 1.57246
head 12.1942 -0.0459722 2.24502
rclavicle -4.37326e-015 -2.54444e-014
rhumerus -32.9238 15.7548 -84.4355
rradius 101.164
rwrist 25.4556
rhand -32.9408 17.1984
rfingers 7.12502
rthumb -6.15707 -12.6921
lclavicle -4.37326e-015 -2.54444e-014
lhumerus -34.2965 -21.1987 97.4042
lradius 87.258
lwrist -23.7649
lhand -37.3411 13.4473
lfingers 7.12502
lthumb -10.4037 43.1699
rfemur -80.249 -23.0537 32.9726
rtibia 138.645
rfoot 0.0855993 -15.8438
rtoes 24.7696
lfemur -80.7927 15.1496 -33.8444
ltibia 127.995
lfoot 18.4663 -11.2384
ltoes -8.55018
1615
root -0.396203 15.6174 -4.97586 -23.1857 5.66213 -713.455
lowerback 21.1897 0.174 -2.54697
upperback 9.23169 -0.0823677 3.66878
thorax -1.77916 -0.167057 5.4066
lowerneck -18.4964 -0.586414 -8.39602
upperneck 27.6784 1.48491 1.42935
head 12.155 -0.025124 2.20119
rclavicle 1.05356e-014 -4.92986e-014
rhumerus -33.0286 15.669 -84.5566
rradius 101.233
rwrist 25.4285
rhand -32.7708 17.094
rfingers 7.12502
rthumb -5.99291 -12.8013
lclavicle 1.05356e-014 -4.92986e-014
lhumerus -34.0791 -21.1356 97.4429
lradius 87.0801
lwrist -23.8941
lhand -37.0296 13.329
lfingers 7.12502
lthumb -10.1032 43.0664
rfemur -80.3815 -23.4098 32.7454
rtibia 138.674
rfoot 0.283481 -15.5178
rtoes 24.6789
lfemur -80.5133 14.7539 -34.116
ltibia 127.954
lfoot 19.2075 -10.9841
ltoes -8.8789
